<?xml version="1.0" encoding="UTF-8"?>
<svg width="80px" height="80px" viewBox="0 0 80 80" version="1.1" xmlns="http://www.w3.org/2000/svg" xmlns:xlink="http://www.w3.org/1999/xlink">
    <title>通用</title>
    <g id="页面-1" stroke="none" stroke-width="1" fill="none" fill-rule="evenodd">
        <g id="通用" fill-rule="nonzero">
            <rect id="矩形" fill="#000000" opacity="0" x="0" y="0" width="80" height="80"></rect>
            <path d="M10.2609909,0 L50,0 L72.8,23.0000291 L72.8,77.7678571 C72.8,79.000625 71.7877091,80 70.5390091,80 L10.2609909,80 C9.01229086,80 8,79.000625 8,77.7678571 L8,2.23214286 C8,0.999375 9.01229086,0 10.2609909,0 Z" id="路径" fill="#7BBBFF"></path>
            <path d="M47.5,60 C48.8807119,60 50,61.1192881 50,62.5 C50,63.8807119 48.8807119,65 47.5,65 L21.5,65 C20.1192881,65 19,63.8807119 19,62.5 C19,61.1192881 20.1192881,60 21.5,60 L47.5,60 Z M59,46 C60.3807119,46 61.5,47.1192881 61.5,48.5 C61.5,49.8807119 60.3807119,51 59,51 L21.5,51 C20.1192881,51 19,49.8807119 19,48.5 C19,47.1192881 20.1192881,46 21.5,46 L59,46 Z M59,32 C60.3807119,32 61.5,33.1192881 61.5,34.5 C61.5,35.8807119 60.3807119,37 59,37 L21.5,37 C20.1192881,37 19,35.8807119 19,34.5 C19,33.1192881 20.1192881,32 21.5,32 L59,32 Z" id="形状结合" fill="#FFFFFF"></path>
            <path d="M72.8,23.0000291 L55.7142857,23.0000291 C52.56,23.0000291 50,20.2000258 50,16.7500218 L50,0 L72.8,23.0000291 Z" id="路径" fill="#A6C8F6"></path>
        </g>
    </g>
</svg>